<svg width="24" height="24" viewBox="0 0 24 24" fill="none"
  xmlns="http://www.w3.org/2000/svg">
  <style>
    .primary {
      fill: #5100B8;
    }

    .secondary {
      fill: #000000;
    }

    .secondaryS {
      fill: #000000;
      stroke: #000000;
    }

    @media (prefers-color-scheme: dark) {
      .primary {
        fill: #9F54FF;
      }

      .secondary {
        fill: #FAFDF6;
      }

      .secondaryS {
        fill: #FAFDF6;
        stroke: #FAFDF6;
      }
    }
  </style>
  <path class="secondary" fill-rule="evenodd" clip-rule="evenodd" d="M18.6667 3.66667H5.33335C4.41287 3.66667 3.66668 4.41287 3.66668 5.33334V18.6667C3.66668 19.5872 4.41287 20.3333 5.33335 20.3333H18.6667C19.5872 20.3333 20.3334 19.5872 20.3334 18.6667V5.33334C20.3334 4.41287 19.5872 3.66667 18.6667 3.66667ZM5.33335 2.00001C3.4924 2.00001 2.00002 3.49239 2.00002 5.33334V18.6667C2.00002 20.5076 3.4924 22 5.33335 22H18.6667C20.5076 22 22 20.5076 22 18.6667V5.33334C22 3.49239 20.5076 2.00001 18.6667 2.00001H5.33335Z" fill="black"/>
  <path class="primary" fill-rule="evenodd" clip-rule="evenodd" d="M15.3856 11.9791L12 8.59349L8.61438 11.9791L12 15.3647L15.3856 11.9791ZM13.6928 6.90067C12.7579 5.96575 11.2421 5.96575 10.3072 6.90067L6.92157 10.2863C5.98665 11.2212 5.98665 12.737 6.92157 13.6719L10.3072 17.0576C11.2421 17.9925 12.7579 17.9925 13.6928 17.0576L17.0785 13.6719C18.0134 12.737 18.0134 11.2212 17.0785 10.2863L13.6928 6.90067Z" fill="#5100B8"/>
  <path class="secondaryS" d="M20.7053 8.06968C20.6865 8.05093 20.6611 8.04039 20.6345 8.04039C20.608 8.04039 20.5826 8.05093 20.5638 8.06968L19.993 8.64051L19.4642 8.11175C19.4252 8.07269 19.3619 8.07269 19.3228 8.11175L18.9232 8.5114L18.5235 8.91105C18.4845 8.9501 18.4845 9.01342 18.5235 9.05247L19.123 9.65194C19.6035 10.1324 20.3825 10.1324 20.863 9.65194L21.0707 9.44424C21.0895 9.42549 21.1 9.40005 21.1 9.37353V8.50585C21.1 8.47932 21.0895 8.45389 21.0707 8.43514L20.7053 8.06968ZM14.5847 2.9C14.5582 2.9 14.5328 2.91054 14.514 2.92929L14.3272 3.11613C13.8467 3.59662 13.8467 4.37565 14.3272 4.85615L14.9267 5.45562C14.9657 5.49467 15.029 5.49467 15.0681 5.45562L15.4677 5.05597L15.8674 4.65632C15.8861 4.63757 15.8967 4.61213 15.8967 4.58561C15.8967 4.55909 15.8861 4.53366 15.8674 4.5149L15.3386 3.98614L15.9095 3.41531C15.9485 3.37625 15.9485 3.31294 15.9095 3.27388L15.5649 2.92929C15.5461 2.91054 15.5207 2.9 15.4942 2.9H14.5847ZM16.1256 6.51315C16.0866 6.5522 16.0866 6.61552 16.1256 6.65457L17.3246 7.85352C17.3636 7.89257 17.4269 7.89257 17.466 7.85352L17.8656 7.45387L18.2653 7.05422C18.284 7.03547 18.2946 7.01003 18.2946 6.98351C18.2946 6.95699 18.284 6.93155 18.2653 6.9128L17.0663 5.71385C17.0273 5.6748 16.964 5.6748 16.9249 5.71385L16.5253 6.1135L16.1256 6.51315Z" fill="black" stroke="black" stroke-width="0.2" stroke-miterlimit="1.41421" stroke-linejoin="round"/>
  <path class="secondaryS" d="M9.37353 21.1C9.40005 21.1 9.42549 21.0895 9.44424 21.0707L9.67281 20.8421C10.1533 20.3616 10.1533 19.5826 9.67281 19.1021L9.07334 18.5026C9.03429 18.4636 8.97097 18.4636 8.93192 18.5026L8.53227 18.9023L8.13262 19.3019C8.09357 19.341 8.09357 19.4043 8.13262 19.4434L8.66138 19.9721L8.09055 20.543C8.0718 20.5617 8.06126 20.5872 8.06126 20.6137C8.06126 20.6402 8.0718 20.6656 8.09055 20.6844L8.47688 21.0707C8.49564 21.0895 8.52107 21.1 8.54759 21.1H9.37353ZM2.9 15.4524C2.9 15.4789 2.91054 15.5044 2.92929 15.5231L3.29476 15.8886C3.33381 15.9276 3.39713 15.9276 3.43618 15.8886L4.00701 15.3178L4.53578 15.8465C4.55453 15.8653 4.57996 15.8758 4.60649 15.8758C4.63301 15.8758 4.65844 15.8653 4.6772 15.8465L5.07685 15.4469L5.4765 15.0472C5.51555 15.0082 5.51555 14.9449 5.4765 14.9058L4.87702 14.3063C4.39653 13.8258 3.6175 13.8258 3.137 14.3063L2.92929 14.514C2.91054 14.5328 2.9 14.5582 2.9 14.5848V15.4524ZM6.67544 16.1048C6.63639 16.0657 6.57307 16.0657 6.53402 16.1048L6.13437 16.5044L5.73472 16.9041C5.71597 16.9228 5.70543 16.9482 5.70543 16.9748C5.70543 17.0013 5.71597 17.0267 5.73472 17.0455L6.93367 18.2444C6.97272 18.2835 7.03604 18.2835 7.07509 18.2444L7.47474 17.8448L7.87439 17.4451C7.91344 17.4061 7.91344 17.3428 7.87439 17.3037L6.67544 16.1048Z" fill="black" stroke="black" stroke-width="0.2" stroke-miterlimit="1.41421" stroke-linejoin="round"/>
  <path class="secondaryS" d="M2.9 9.3735C2.9 9.40002 2.91054 9.42546 2.92929 9.44421L3.13702 9.65194C3.61751 10.1324 4.39655 10.1324 4.87704 9.65194L5.47651 9.05247C5.51557 9.01342 5.51557 8.9501 5.47651 8.91105L5.07686 8.5114L4.67721 8.11175C4.65846 8.09299 4.63303 8.08246 4.6065 8.08246C4.57998 8.08246 4.55455 8.09299 4.53579 8.11175L4.00703 8.64051L3.4362 8.06968C3.41744 8.05093 3.39201 8.04039 3.36549 8.04039C3.33896 8.04039 3.31353 8.05093 3.29478 8.06968L2.92929 8.43517C2.91054 8.45392 2.9 8.47935 2.9 8.50588V9.3735ZM8.09057 3.27388C8.05152 3.31294 8.05152 3.37625 8.09057 3.41531L8.6614 3.98614L8.13264 4.5149C8.11388 4.53366 8.10335 4.55909 8.10335 4.58561C8.10335 4.61213 8.11388 4.63757 8.13264 4.65632L8.53229 5.05597L8.93194 5.45562C8.97099 5.49467 9.03431 5.49467 9.07336 5.45562L9.67283 4.85615C10.1533 4.37565 10.1533 3.59662 9.67283 3.11613L9.48599 2.92929C9.46724 2.91054 9.4418 2.9 9.41528 2.9H8.50588C8.47935 2.9 8.45392 2.91054 8.43516 2.92929L8.09057 3.27388ZM7.87441 6.65457C7.89316 6.63582 7.9037 6.61038 7.9037 6.58386C7.9037 6.55734 7.89316 6.5319 7.87441 6.51315L7.47476 6.1135L7.07511 5.71385C7.05636 5.6951 7.03092 5.68456 7.0044 5.68456C6.97788 5.68456 6.95244 5.6951 6.93369 5.71385L5.73474 6.9128C5.69569 6.95185 5.69569 7.01517 5.73474 7.05422L6.13439 7.45387L6.53404 7.85352C6.57309 7.89257 6.63641 7.89257 6.67546 7.85352L7.87441 6.65457Z" fill="black" stroke="black" stroke-width="0.2" stroke-miterlimit="1.41421" stroke-linejoin="round"/>
  <path class="secondaryS" d="M21.1 14.5848C21.1 14.5582 21.0895 14.5328 21.0707 14.514L20.863 14.3063C20.3825 13.8258 19.6035 13.8258 19.123 14.3063L18.5235 14.9058C18.4844 14.9449 18.4844 15.0082 18.5235 15.0472L18.9231 15.4469L19.3228 15.8465C19.3619 15.8856 19.4252 15.8856 19.4642 15.8465L19.993 15.3178L20.5638 15.8886C20.6029 15.9276 20.6662 15.9276 20.7052 15.8886L21.0707 15.5231C21.0895 15.5044 21.1 15.4789 21.1 15.4524V14.5848ZM15.4524 21.1C15.4789 21.1 15.5044 21.0895 15.5231 21.0707L15.9094 20.6844C15.9485 20.6453 15.9485 20.582 15.9094 20.543L15.3386 19.9721L15.8674 19.4434C15.8861 19.4246 15.8967 19.3992 15.8967 19.3727C15.8967 19.3461 15.8861 19.3207 15.8674 19.3019L15.4677 18.9023L15.0681 18.5026C15.029 18.4636 14.9657 18.4636 14.9267 18.5026L14.3272 19.1021C13.8467 19.5826 13.8467 20.3616 14.3272 20.8421L14.5558 21.0707C14.5745 21.0895 14.5999 21.1 14.6265 21.1H15.4524ZM16.1256 17.3037C16.0866 17.3428 16.0866 17.4061 16.1256 17.4451L16.5253 17.8448L16.9249 18.2444C16.9437 18.2632 16.9691 18.2737 16.9956 18.2737C17.0221 18.2737 17.0476 18.2632 17.0663 18.2444L18.2653 17.0455C18.284 17.0267 18.2946 17.0013 18.2946 16.9748C18.2946 16.9482 18.284 16.9228 18.2653 16.9041L17.8656 16.5044L17.466 16.1048C17.4269 16.0657 17.3636 16.0657 17.3246 16.1048L16.1256 17.3037Z" fill="black" stroke="black" stroke-width="0.2" stroke-miterlimit="1.41421" stroke-linejoin="round"/>
</svg>
